<?xml version="1.0" encoding="UTF-8"?>
<svg width="363px" height="240px" viewBox="0 0 363 240" version="1.1" xmlns="http://www.w3.org/2000/svg" xmlns:xlink="http://www.w3.org/1999/xlink">
    <!-- Generator: Sketch 43.2 (39069) - http://www.bohemiancoding.com/sketch -->
    <title>graph-timeline_3x@1x</title>
    <desc>Created with Sketch.</desc>
    <defs></defs>
    <g id="Page-1" stroke="none" stroke-width="1" fill="none" fill-rule="evenodd">
        <g id="graph-timeline_3x">
            <path d="M195,8 L351,8 L351,83 C266,83 266,91.2317696 195,92 L195,8 Z" id="Rectangle-39" fill="#36C655"></path>
            <path d="M195,92 C251,92 266,83 351,83 L351,135 C266,135 266,114 195,114 L195,92 Z" id="Rectangle-40" fill="#129D7E"></path>
            <path d="M351,30.6800406 C351,33.3818184 351,35.7074576 351,37 C341.389062,39.7695312 234.207031,41.378125 195,31 L195,16.2493458 L195,19 C230.293132,9 310.996094,30.6801877 351,30.6801877 Z" id="Combined-Shape" fill-opacity="0.15" fill="#000000" style="mix-blend-mode: multiply;"></path>
            <path d="M195,0 L351,0 C351,0 351.291009,23.3540705 351,30.6801877 C310.996094,30.6801877 230.293132,9 195,19 L195,0 Z" id="Rectangle" fill="#94E800"></path>
            <path d="M195,45 C273,46.2141927 273,60.2526035 351,59 L351,83 C266,83 249,92 195,92 L195,45 Z" id="Rectangle-34" fill-opacity="0.15" fill="#000000" style="mix-blend-mode: multiply;"></path>
            <path d="M351,135 C266,134.123047 266,114.417318 195,114 L195,149 C273,149 273,186 351,186 L351,135 Z" id="Rectangle-41" fill="#3C427F"></path>
            <path d="M351,135 C273,136.361979 273,115.252604 195,114 L195,122 C273,122 273,150 351,150 L351,135 Z" id="Rectangle-36" fill-opacity="0.15" fill="#000000" style="mix-blend-mode: multiply;"></path>
            <path d="M351,171 C273,172.361979 273,129.252604 195,128 L195,149 C273,149 273,186 351,186 L351,171 Z" id="Rectangle-37" fill-opacity="0.15" fill="#000000" style="mix-blend-mode: multiply;"></path>
            <path d="M351,99 C273,100.361979 273,101.252604 195,100 L195,108 C273,108 273,114 351,114 L351,99 Z" id="Rectangle-35" fill-opacity="0.15" fill="#000000" style="mix-blend-mode: multiply;"></path>
            <path d="M17.7637129,0 L0,0 L0,166.079 C14.2022078,180.775 154.80572,170.615 177.199,208.44 L177.199,186.159 C177.199,148.183 17.7637129,217 17.7637129,20" id="Fill-1" fill="#535A9E"></path>
            <path d="M177.199,146.865 L177.199,82.02 C177.199,64.528 68.4876537,69.792 68.4876537,20 L68.4899979,-7.10542736e-15 L35.5200005,-7.10542736e-15 L35.516716,20 C43.1966375,91.343 177.199,109.76 177.199,146.865 Z" id="Fill-2" fill="#129D7E"></path>
            <path d="M177.199,82.02 C177.199,64.528 68.4876537,70 68.4876537,20 L68.4899979,0 L177.199997,0 L177.199,20 L177.199,82.02 Z" id="Fill-3" fill="#36C655"></path>
            <path d="M177.199465,21 C177.199465,15.8816386 129.065728,21.6625374 119.234607,14.3664463 C109.403485,7.07035521 110.201248,6.10622664e-16 110.201248,6.10622664e-16 L177.199997,6.10622664e-16 L177.199465,5.85223116 L177.199465,21 Z" id="Fill-3" fill="#94E800"></path>
            <path d="M0,166.079 L0,184.901 L0,184.466 C26.628531,222.005 163.568308,212.486 177.199,226.725 L177.199,208.44 C154.80572,170.615 14.2022078,180.775 0,166.079" id="Fill-4" fill="#6C89C5"></path>
            <path d="M0,240 L177.199,240 L177.199,226.725 L177.199,227.16 C163.568308,212.922 26.628531,222.441 0,184.901 L0,240 Z" id="Fill-5" fill="#CCCCCC"></path>
            <path d="M0,184.466 L0,184.901 C26.628531,222.441 163.568308,212.922 177.199,227.16 L177.199,226.725 C163.568308,212.486 26.628531,222.005 0,184.466" id="Fill-6" fill="#566D9D"></path>
            <path d="M35.5200005,0 L17.7600002,0 L17.7637129,20 C17.7637129,217 177.199,148.183 177.199,186.159 L177.199,146.865 C177.199,109.76 43.1966375,91.343 35.516716,20 L35.5200005,0 Z" id="Fill-7" fill="#3C427F"></path>
            <text id="MOBILE" font-family="Roboto-Bold, Roboto" font-size="10" font-weight="bold" fill="#FFFFFF">
                <tspan x="106" y="42.172572">MOBILE</tspan>
            </text>
            <text id="INVISIBLE" font-family="Roboto-Bold, Roboto" font-size="10" font-weight="bold" fill="#FFFFFF">
                <tspan x="126.199" y="12.4986916">INVISIBLE</tspan>
            </text>
            <text id="WEB" font-family="Roboto-Bold, Roboto" font-size="10" font-weight="bold" fill="#FFFFFF">
                <tspan x="93.5" y="76.9250411">WEB</tspan>
            </text>
            <text id="DESKTOP" font-family="Roboto-Bold, Roboto" font-size="10" font-weight="bold" fill="#FFFFFF">
                <tspan x="69.3266842" y="123">DESKTOP</tspan>
            </text>
            <text id="PRINT" font-family="Roboto-Bold, Roboto" font-size="10" font-weight="bold" fill="#FFFFFF">
                <tspan x="13" y="146">PRINT</tspan>
            </text>
            <text id="CAD" font-family="Roboto-Bold, Roboto" font-size="10" font-weight="bold" fill="#FFFFFF">
                <tspan x="82.5" y="200">CAD</tspan>
            </text>
            <text id="HAND-DRAFTING" font-family="Roboto-Bold, Roboto" font-size="10" font-weight="bold" fill="#FFFFFF">
                <tspan x="12.5" y="230.69043">HAND DRAFTING</tspan>
            </text>
            <text id="NOW2017-2016-2015-20" opacity="0.790286847" font-family="Roboto-Light, Roboto" font-size="6" font-weight="300" line-spacing="7.4000001" fill="#1B1B1B">
                <tspan x="179.150391" y="8.46000004">NOW</tspan>
                <tspan x="179.349609" y="15.8600001">2017</tspan>
                <tspan x="179.349609" y="23.2600002">2016</tspan>
                <tspan x="179.349609" y="30.6600003">2015</tspan>
                <tspan x="179.349609" y="38.0600004">2014</tspan>
                <tspan x="179.349609" y="45.4600005">2013</tspan>
                <tspan x="179.349609" y="52.8600006">2012</tspan>
                <tspan x="179.349609" y="60.2600007">2011</tspan>
                <tspan x="179.349609" y="67.6600008">2010</tspan>
                <tspan x="179.349609" y="75.0600009">2009</tspan>
                <tspan x="179.349609" y="82.460001">2008</tspan>
                <tspan x="179.349609" y="89.8600011">2007</tspan>
                <tspan x="179.349609" y="97.2600012">2006</tspan>
                <tspan x="179.349609" y="104.660001">2005</tspan>
                <tspan x="179.349609" y="112.060001">2004</tspan>
                <tspan x="179.349609" y="119.460001">2003</tspan>
                <tspan x="179.349609" y="126.860002">2002</tspan>
                <tspan x="179.349609" y="134.260002">2001</tspan>
                <tspan x="179.349609" y="141.660002">2000</tspan>
                <tspan x="179.349609" y="149.060002">1999</tspan>
                <tspan x="179.349609" y="156.460002">1998</tspan>
                <tspan x="179.349609" y="163.860002">1997</tspan>
                <tspan x="179.349609" y="171.260002">1996</tspan>
                <tspan x="179.349609" y="178.660002">1995</tspan>
                <tspan x="179.349609" y="186.060002">1994</tspan>
                <tspan x="179.349609" y="193.460002">1993</tspan>
                <tspan x="179.349609" y="200.860003">1992</tspan>
                <tspan x="179.349609" y="208.260003">1991</tspan>
                <tspan x="179.349609" y="215.660003">1990</tspan>
                <tspan x="179.349609" y="223.060003">1989</tspan>
                <tspan x="179.349609" y="230.460003">1988</tspan>
                <tspan x="179.349609" y="237.860003">1987</tspan>
                <tspan x="179.349609" y="245.260003">1986</tspan>
            </text>
            <rect id="Rectangle-29" fill="#36C655" x="352" y="30" width="11" height="53"></rect>
            <rect id="Rectangle-30" fill="#129D7E" x="352" y="83" width="11" height="52"></rect>
            <rect id="Rectangle-31" fill="#3C427F" x="352" y="135" width="11" height="51"></rect>
            <rect id="Rectangle-32" fill="#535A9E" x="352" y="186" width="11" height="54"></rect>
            <text id="PROCESSMAP" font-family="Roboto-Medium, Roboto" font-size="7" font-weight="400" line-spacing="9" fill="#FFFFFF">
                <tspan x="200" y="28">PROCESSMAP</tspan>
            </text>
            <text id="CROSS.TEAM" font-family="Roboto-Medium, Roboto" font-size="7" font-weight="400" line-spacing="9" fill="#32376B">
                <tspan x="200" y="10">CROSS.TEAM</tspan>
            </text>
            <text id="EDUCATOR-SPEAKER-AUT" font-family="Roboto-Medium, Roboto" font-size="6" font-weight="400" fill="#32376B">
                <tspan x="318.029152" y="9.49869161">EDUCATOR</tspan>
                <tspan x="322.496925" y="16.4986916">SPEAKER</tspan>
                <tspan x="324.61216" y="23.4986916">AUTHOR</tspan>
            </text>
            <text id="MOBIQUITY" font-family="Roboto-Medium, Roboto" font-size="6" font-weight="400" fill="#FFFFFF">
                <tspan x="316.119141" y="47">MOBIQUITY</tspan>
                <tspan x="323.648438" y="54">SAPIENT</tspan>
            </text>
            <text id="THOMSON-REUTERS" font-family="Roboto-Medium, Roboto" font-size="7" font-weight="400" line-spacing="9" fill="#FFFFFF">
                <tspan x="200" y="70">THOMSON REUTERS</tspan>
            </text>
            <text id="EVENT-MONITOR" font-family="Roboto-Medium, Roboto" font-size="6" font-weight="400" fill="#FFFFFF">
                <tspan x="301.488281" y="94">EVENT MONITOR</tspan>
            </text>
            <text id="NEW-RIVER" font-family="Roboto-Medium, Roboto" font-size="6" font-weight="400" fill="#FFFFFF">
                <tspan x="317.118164" y="108">NEW RIVER</tspan>
            </text>
            <text id="THOMSON-FINANCIAL" font-family="Roboto-Medium, Roboto" font-size="6" font-weight="400" fill="#FFFFFF">
                <tspan x="286.725586" y="124">THOMSON FINANCIAL</tspan>
            </text>
            <text id="VERIZON" font-family="Roboto-Medium, Roboto" font-size="6" font-weight="400" fill="#FFFFFF">
                <tspan x="323.349609" y="144">VERIZON</tspan>
            </text>
            <text id="CONSULTING" font-family="Roboto-Medium, Roboto" font-size="6" font-weight="400" fill="#FFFFFF">
                <tspan x="311.824219" y="161">CONSULTING</tspan>
            </text>
            <text id="ZEFER" font-family="Roboto-Medium, Roboto" font-size="7" font-weight="400" line-spacing="9" fill="#FFFFFF">
                <tspan x="200" y="140">ZEFER</tspan>
            </text>
            <text id="MANAGER" transform="translate(356.500000, 107.500000) rotate(-90.000000) translate(-356.500000, -107.500000) " font-family="Roboto-Medium, Roboto" font-size="6" font-weight="400" fill="#FFFFFF">
                <tspan x="342.118164" y="110">MANAGER</tspan>
            </text>
            <text id="DIRECTOR" transform="translate(356.500000, 55.500000) rotate(-90.000000) translate(-356.500000, -55.500000) " font-family="Roboto-Medium, Roboto" font-size="6" font-weight="400" fill="#FFFFFF">
                <tspan x="342.48584" y="58">DIRECTOR</tspan>
            </text>
            <rect id="Rectangle-29" fill="#94E800" x="352" y="0" width="11" height="30.3825639"></rect>
            <text id="SENIOR-2" transform="translate(356.750000, 158.500000) rotate(-90.000000) translate(-356.750000, -158.500000) " font-family="Roboto-Medium, Roboto" font-size="6" font-weight="400" fill="#FFFFFF">
                <tspan x="346.323242" y="161">SENIOR</tspan>
            </text>
            <text id="GO-GETTER" transform="translate(357.187500, 211.500000) rotate(-90.000000) translate(-357.187500, -211.500000) " font-family="Roboto-Medium, Roboto" font-size="6" font-weight="400" fill="#FFFFFF">
                <tspan x="341.088867" y="214">GO-GETTER</tspan>
            </text>
            <path d="M351,186 C272,186 275,149 195,149 L195,240 C273,240 273,240 351,240 L351,186 Z" id="Rectangle-38" fill="#6C89C5"></path>
            <path d="M351,208 C273,209.361979 273,171.252604 195,170 L195,198 C273,198 273,223 351,223 L351,208 Z" id="Rectangle-42" fill-opacity="0.15" fill="#FFFFFF"></path>
            <text id="INFORMATION-RESOURCE" font-family="Roboto-Medium, Roboto" font-size="6" font-weight="400" fill="#FFFFFF">
                <tspan x="307.179688" y="194">INFORMATION </tspan>
                <tspan x="313.513672" y="201">RESOURCES</tspan>
            </text>
            <text id="CONSULTING" font-family="Roboto-Medium, Roboto" font-size="7" font-weight="400" line-spacing="9" fill="#FFFFFF">
                <tspan x="200" y="188">CONSULTING</tspan>
            </text>
            <text id="GENERAL-ELECTRIC" font-family="Roboto-Medium, Roboto" font-size="7" font-weight="400" line-spacing="9" fill="#FFFFFF">
                <tspan x="200" y="223">GENERAL ELECTRIC</tspan>
            </text>
            <path d="M349.655266,15.4561303 C349.655266,14.9673354 349.819966,14.5706383 350.149371,14.266027 C350.478776,13.9614157 350.891412,13.8091123 351.387291,13.8091123 C351.890254,13.8091123 352.306432,13.9614157 352.635837,14.266027 C352.965242,14.5706383 353.129942,14.9673354 353.129942,15.4561303 C353.129942,15.9378412 352.967013,16.3292254 352.64115,16.6302947 C352.315287,16.931364 351.897338,17.0818964 351.387291,17.0818964 C350.884328,17.0818964 350.469921,16.931364 350.144058,16.6302947 C349.818195,16.3292254 349.655266,15.9378412 349.655266,15.4561303 L349.655266,15.4561303 Z M355.97769,15.4561303 C355.97769,14.9673354 356.14239,14.5706383 356.471795,14.266027 C356.8012,13.9614157 357.213836,13.8091123 357.709715,13.8091123 C358.212678,13.8091123 358.628856,13.9614157 358.958261,14.266027 C359.287666,14.5706383 359.452366,14.9673354 359.452366,15.4561303 C359.452366,15.9378412 359.289437,16.3292254 358.963574,16.6302947 C358.637711,16.931364 358.219762,17.0818964 357.709715,17.0818964 C357.206752,17.0818964 356.792345,16.931364 356.466482,16.6302947 C356.140619,16.3292254 355.97769,15.9378412 355.97769,15.4561303 L355.97769,15.4561303 Z M362.300113,15.4561303 C362.300113,14.9673354 362.464814,14.5706383 362.794219,14.266027 C363.123624,13.9614157 363.53626,13.8091123 364.032139,13.8091123 C364.535102,13.8091123 364.951279,13.9614157 365.280685,14.266027 C365.61009,14.5706383 365.77479,14.9673354 365.77479,15.4561303 C365.77479,15.9378412 365.611861,16.3292254 365.285998,16.6302947 C364.960134,16.931364 364.542186,17.0818964 364.032139,17.0818964 C363.529176,17.0818964 363.114769,16.931364 362.788906,16.6302947 C362.463043,16.3292254 362.300113,15.9378412 362.300113,15.4561303 L362.300113,15.4561303 Z" id="..." fill="#FFFFFF" transform="translate(357.715028, 15.445504) scale(1, -1) rotate(90.000000) translate(-357.715028, -15.445504) "></path>
        </g>
    </g>
</svg>